Coordinates
version=1
nRows=19
nColumns=36
inDegrees=yes

Units are S.I. units (second, meters, Newtons, ...)
If the header above contains a line with 'inDegrees', this indicates whether rotational values are in degrees (yes) or radians (no).

endheader
time	pelvis_tilt	pelvis_list	pelvis_rotation	pelvis_tx	pelvis_ty	pelvis_tz	hip_flexion_r	hip_adduction_r	hip_rotation_r	knee_angle_r	knee_angle_r_beta	ankle_angle_r	subtalar_angle_r	mtp_angle_r	hip_flexion_l	hip_adduction_l	hip_rotation_l	knee_angle_l	knee_angle_l_beta	ankle_angle_l	subtalar_angle_l	mtp_angle_l	lumbar_extension	lumbar_bending	lumbar_rotation	arm_flex_r	arm_add_r	arm_rot_r	elbow_flex_r	pro_sup_r	arm_flex_l	arm_add_l	arm_rot_l	elbow_flex_l	pro_sup_l
      1.42083330	      0.87497513	     -0.76413987	     -0.95254606	     -1.01977350	      1.23993729	     -0.06010814	     -0.99199268	      1.73060012	     -1.28805284	      5.48794003	      0.09578262	      8.60277742	     -9.14790630	     -7.49999987	     -1.59182774	     -0.88120761	     -3.42772154	      4.63221427	      0.08084739	      6.79301571	     -7.77998705	     -7.49999987	    -13.08676385	      1.37230838	      1.22870809	      2.90014985	    -13.65370788	     -2.53898362	     33.35858390	     64.37474533	      3.40343209	    -14.51689959	     13.52167965	     31.32338920	     69.04148521
      1.42500000	      0.98789077	     -0.78485625	     -0.94274306	     -1.02032145	      1.23624742	     -0.05992908	     -1.09326754	      1.77490862	     -1.20528102	      5.53512441	      0.09660615	      8.55395137	     -9.41972385	     -7.49999987	     -1.63421407	     -0.90891720	     -3.38959427	      4.70556930	      0.08212768	      6.83262199	     -7.80262012	     -7.49999987	    -13.36739763	      1.37693615	      1.25326876	      3.10732895	    -13.70409286	     -2.40665360	     32.96564305	     64.80292027	      3.58254578	    -14.49410467	     13.59453743	     30.89877016	     69.87628592
      1.42916670	      1.01270198	     -0.80309134	     -0.91060763	     -1.01836220	      1.23323464	     -0.06082003	     -1.09442962	      1.78758268	     -1.19003291	      5.67702123	      0.09908271	      8.54998164	     -9.52396360	     -7.49999987	     -1.62686830	     -0.93323276	     -3.39384011	      4.79177799	      0.08363230	      6.85796038	     -7.93010026	     -7.49999987	    -13.52804700	      1.40233333	      1.27744852	      2.92094390	    -13.75212669	     -2.61978410	     33.38547228	     64.30398501	      3.35160583	    -14.51573848	     13.39573334	     31.32894305	     68.98324346
      1.43333330	      0.98615373	     -0.80870967	     -0.91004107	     -1.01782901	      1.23726501	     -0.06225995	     -1.09251663	      1.76688518	     -1.18701527	      5.68248354	      0.09917805	      8.55432177	     -9.52653415	     -7.49999987	     -1.62048967	     -0.92565794	     -3.39113301	      4.79138135	      0.08362538	      6.86327081	     -7.92958694	     -7.49999987	    -13.53592754	      1.40439197	      1.28280159	      2.90909651	    -13.75699613	     -2.61958123	     33.37806035	     64.30507734	      3.32907632	    -14.51568104	     13.39869398	     31.31922208	     68.98558083
      1.43750000	      0.76141274	     -0.79352224	     -0.92401962	     -1.01754119	      1.23728473	     -0.06109946	     -0.74812047	      1.71628944	     -1.09829498	      5.91922849	      0.10331003	      8.68729179	     -9.77612837	     -7.49999987	     -1.38852917	     -0.88463792	     -3.34319197	      4.85878525	      0.08480180	      6.99603292	     -7.95511363	     -7.49999987	    -13.21080202	      1.43434701	      1.31955889	      2.75301941	    -13.82405952	     -2.51960675	     33.09012888	     64.37584108	      3.12906551	    -14.43382033	     13.57648549	     30.92631730	     69.11343591
      1.44166670	      0.54930400	     -0.77254626	     -0.92626193	     -1.01708219	      1.23460509	     -0.06217040	     -0.43803359	      1.64885989	     -1.06384881	      6.03539819	      0.10533757	      8.73481562	     -9.95715580	     -7.49999987	     -1.17065990	     -0.83905246	     -3.38178929	      4.95405714	      0.08646461	      7.13004892	     -8.00806174	     -7.49999987	    -12.90601848	      1.44039321	      1.34969929	      2.63443249	    -13.88555885	     -2.32720902	     32.81677691	     64.51820827	      3.06104965	    -14.43202464	     13.92510237	     30.58119568	     69.40403281
      1.44583330	      0.44345218	     -0.77722430	     -0.93822528	     -1.01673890	      1.23055869	     -0.06063903	     -0.28485925	      1.66447088	     -0.97215829	      6.18356598	      0.10792359	      8.90176837	     -9.90902271	     -7.49999987	     -1.05663329	     -0.85213898	     -3.54468783	      5.02537377	      0.08770932	      7.44998136	     -7.65277724	     -7.49999987	    -12.80334186	      1.43692210	      1.35054244	      2.51523221	    -13.86651609	     -2.49972495	     32.79098160	     64.45655937	      2.88087405	    -14.43244407	     13.62156326	     30.55935287	     69.34344154
      1.45000000	      0.41806182	     -0.80880331	     -0.88925805	     -1.01791049	      1.23470084	     -0.05996866	     -0.26406094	      1.74334998	     -0.89857014	      6.25107333	      0.10910181	      8.93139444	     -9.93145005	     -7.49999987	     -1.03503359	     -0.89935559	     -3.46335567	      5.02697614	      0.08773729	      7.47244062	     -7.67368400	     -7.49999987	    -12.85459825	      1.44781962	      1.34602511	      2.41886934	    -13.87121026	     -2.47583349	     32.77248851	     64.47400711	      2.80705145	    -14.48411231	     13.64657632	     30.53706152	     69.37507773
      1.45416670	      0.29617788	     -0.83063352	     -0.81603118	     -1.01694239	      1.23375013	     -0.05935218	     -0.12643461	      1.85202252	     -0.66140477	      6.39562018	      0.11162463	      8.97375578	    -10.16703897	     -7.49999987	     -0.86398720	     -0.94804791	     -3.24378296	      5.07937146	      0.08865176	      7.46155486	     -7.87805493	     -7.49999987	    -12.77635236	      1.45040940	      1.33854211	      2.25224511	    -13.88634675	     -2.26605078	     32.91187451	     64.36106457	      2.71952260	    -14.66521193	     13.98578906	     30.65247267	     69.17332604
      1.45833330	      0.20047758	     -0.85507605	     -0.76563471	     -1.01650446	      1.23085424	     -0.06042086	     -0.01384168	      1.92834593	     -0.57352131	      6.56923027	      0.11465470	      9.09436715	    -10.16297028	     -7.49999987	     -0.72012807	     -0.98805520	     -3.13152650	      5.14307526	      0.08976360	      7.54642103	     -7.91135273	     -7.49999987	    -12.72897267	      1.46121090	      1.33207041	      2.09816053	    -13.94718831	     -2.17204122	     33.03023420	     64.31801113	      2.58811446	    -14.74789989	     14.13835181	     30.75331048	     69.10602678
      1.46250000	     -0.04493132	     -0.87982524	     -0.73662861	     -1.01782663	      1.23238938	     -0.06067211	      0.31098673	      1.99181588	     -0.48165155	      6.72807358	      0.11742704	      9.22748664	    -10.17017637	     -7.49999987	     -0.35659856	     -1.03429166	     -3.17322717	      5.27371283	      0.09204365	      7.65628826	     -7.93213130	     -7.49999987	    -12.48555185	      1.46964884	      1.40547803	      1.98591681	    -13.98137269	     -2.22323593	     32.80486482	     66.41074995	      2.58167550	    -14.72001005	     13.83716913	     30.37507869	     73.19104051
      1.46666670	     -0.66619421	     -0.88687736	     -0.72858534	     -1.01826963	      1.23447020	     -0.06113782	      1.08512148	      1.99694622	     -0.49961939	      6.96317053	      0.12153025	      9.61857058	     -9.83199698	     -7.49999987	      0.41639417	     -1.05259231	     -3.20967587	      5.42048612	      0.09460533	      7.89930907	     -7.72309029	     -7.49999987	    -11.80261626	      1.50763535	      1.38430773	      1.27814764	    -14.03983225	     -2.27810026	     33.84958422	     65.89390461	      1.84152021	    -14.85908634	     13.74196167	     31.42777550	     72.21380113
      1.47083330	     -0.25322482	     -0.90273345	     -0.70496059	     -1.01840548	      1.23602070	     -0.06056584	      0.60312407	      2.01303991	     -0.42481240	      6.81995442	      0.11903066	      9.27011444	    -10.08042753	     -7.49999987	     -0.01868615	     -1.03702682	     -3.06817464	      5.33868204	      0.09317758	      7.57603170	     -7.97996472	     -7.49999987	    -12.62774258	      1.50059896	      1.44587738	      1.81624481	    -14.01588090	     -2.25555560	     33.10516650	     65.71658907	      2.37685655	    -14.75990562	     13.71724338	     30.63608311	     71.87456047
      1.47500000	     -0.35304645	     -0.92926070	     -0.69471631	     -1.01784533	      1.23815990	     -0.06142402	      0.68993158	      2.00469941	     -0.50626948	      6.76508597	      0.11807302	      9.37651230	     -9.71170865	     -7.49999987	      0.10499066	     -1.03474971	     -3.02776738	      5.28212849	      0.09219053	      7.46836395	     -7.97027148	     -7.49999987	    -12.69475093	      1.55389865	      1.41470486	      1.82074661	    -14.02682933	     -2.14173441	     33.02900281	     65.28584520	      2.29461962	    -14.69860590	     13.81828175	     30.50277178	     71.03353636
      1.47916670	     -0.58642077	     -0.93998545	     -0.71833946	     -1.01774175	      1.23266453	     -0.06158102	      0.99682746	      1.98563464	     -0.31031948	      6.76768357	      0.11811836	      9.14663530	    -10.24760958	     -7.49999987	      0.42661117	     -1.03404778	     -3.04589037	      5.37335443	      0.09378273	      7.50571124	     -7.98171623	     -7.49999987	    -12.47458998	      1.58016336	      1.43298930	      1.79261653	    -14.17003162	     -1.59171485	     32.84721754	     65.52726308	      2.19864946	    -14.75353693	     14.30407197	     30.22329489	     71.41108770
      1.48333330	     -0.63954091	     -0.95337457	     -0.73803516	     -1.01852118	      1.23673486	     -0.06100353	      1.08454198	      1.97367430	     -0.29868378	      6.74472918	      0.11771773	      9.13357593	    -10.22453048	     -7.49999987	      0.48755152	     -1.03627611	     -3.03338359	      5.35247500	      0.09341831	      7.48458579	     -7.97186122	     -7.49999987	    -12.60311881	      1.59432993	      1.46731960	      1.77729590	    -14.16268899	     -1.58249189	     32.83318052	     65.53478073	      2.13424816	    -14.74059868	     14.31831498	     30.19566121	     71.42318101
      1.48750000	     -0.77687848	     -0.96991618	     -0.75634216	     -1.01819853	      1.23533920	     -0.06066377	      1.27103021	      1.96645026	     -0.34033061	      6.72795955	      0.11742505	      9.12106277	    -10.10331606	     -7.49999987	      0.68018587	     -1.05974370	     -3.03454277	      5.39701757	      0.09419573	      7.34372353	     -8.11935959	     -7.49999987	    -12.57267907	      1.60444887	      1.51097562	      1.73064523	    -14.24586221	     -1.25935887	     32.79012530	     65.74778107	      2.13363867	    -14.78875093	     14.70083760	     29.94566420	     71.65801773
      1.49166670	     -0.85959783	     -0.97153489	     -0.75637578	     -1.01960958	      1.23248966	     -0.06111522	      1.44905687	      1.95358605	     -0.34995597	      6.76012434	      0.11798643	      9.08526238	    -10.21800170	     -7.49999987	      0.86208110	     -1.06139862	     -3.00580042	      5.50846461	      0.09614084	      7.40834818	     -8.17501199	     -7.49999987	    -12.72157731	      1.61539173	      1.51317850	      1.64110637	    -14.30882366	     -1.30183131	     33.10327910	     65.55392655	      1.98173317	    -14.82818866	     14.64062506	     30.21803880	     71.27964497
      1.49583330	     -0.96057834	     -0.97695807	     -0.72082050	     -1.01731289	      1.23337435	     -0.06157089	      1.57489302	      1.94095632	     -0.38275283	      6.73717584	      0.11758590	      9.03952607	    -10.32888048	     -7.49999987	      1.02261837	     -1.06856924	     -3.00473856	      5.58531685	      0.09748217	      7.51217435	     -7.87070252	     -7.49999987	    -12.70944579	      1.63753817	      1.46219988	      1.59387904	    -14.29098192	     -1.26285978	     33.05394265	     65.20817795	      1.83726383	    -14.81289343	     14.73172221	     30.07143630	     70.58479922
